<mxfile host="app.diagrams.net" modified="2023-08-25T22:31:21.272Z" agent="Mozilla/5.0 (Windows NT 10.0; Win64; x64) AppleWebKit/537.36 (KHTML, like Gecko) Chrome/116.0.0.0 Safari/537.36" etag="ncncdThKeQ0Sh2rfk0CK" version="21.6.9" type="device">
  <diagram name="Strona-1" id="j_4irOM4IL1cnagI5oUX">
    <mxGraphModel dx="2210" dy="745" grid="1" gridSize="10" guides="1" tooltips="1" connect="1" arrows="1" fold="1" page="1" pageScale="1" pageWidth="827" pageHeight="1169" math="0" shadow="0">
      <root>
        <mxCell id="0" />
        <mxCell id="1" parent="0" />
        <mxCell id="s_6wC5saCBp-LXwiftdf-14" value="Weapon models" style="whiteSpace=wrap;html=1;align=center;" vertex="1" parent="1">
          <mxGeometry x="130" y="170" width="100" height="40" as="geometry" />
        </mxCell>
        <mxCell id="s_6wC5saCBp-LXwiftdf-15" value="Components" style="whiteSpace=wrap;html=1;align=center;" vertex="1" parent="1">
          <mxGeometry x="530" y="170" width="100" height="40" as="geometry" />
        </mxCell>
        <mxCell id="s_6wC5saCBp-LXwiftdf-16" value="Orders" style="whiteSpace=wrap;html=1;align=center;" vertex="1" parent="1">
          <mxGeometry x="130" y="290" width="100" height="40" as="geometry" />
        </mxCell>
        <mxCell id="s_6wC5saCBp-LXwiftdf-17" value="Employess&lt;br&gt;" style="whiteSpace=wrap;html=1;align=center;" vertex="1" parent="1">
          <mxGeometry x="530" y="290" width="100" height="40" as="geometry" />
        </mxCell>
        <mxCell id="s_6wC5saCBp-LXwiftdf-18" value="Productions" style="whiteSpace=wrap;html=1;align=center;" vertex="1" parent="1">
          <mxGeometry x="330" y="290" width="100" height="40" as="geometry" />
        </mxCell>
        <mxCell id="s_6wC5saCBp-LXwiftdf-19" value="Model components" style="whiteSpace=wrap;html=1;align=center;" vertex="1" parent="1">
          <mxGeometry x="330" y="170" width="100" height="40" as="geometry" />
        </mxCell>
        <mxCell id="s_6wC5saCBp-LXwiftdf-20" value="" style="edgeStyle=entityRelationEdgeStyle;fontSize=12;html=1;endArrow=ERoneToMany;rounded=0;entryX=0;entryY=0.5;entryDx=0;entryDy=0;" edge="1" parent="1" source="s_6wC5saCBp-LXwiftdf-14" target="s_6wC5saCBp-LXwiftdf-19">
          <mxGeometry width="100" height="100" relative="1" as="geometry">
            <mxPoint x="280" y="370" as="sourcePoint" />
            <mxPoint x="380" y="270" as="targetPoint" />
          </mxGeometry>
        </mxCell>
        <mxCell id="s_6wC5saCBp-LXwiftdf-21" value="" style="edgeStyle=entityRelationEdgeStyle;fontSize=12;html=1;endArrow=ERoneToMany;rounded=0;exitX=0;exitY=0.5;exitDx=0;exitDy=0;entryX=1;entryY=0.5;entryDx=0;entryDy=0;" edge="1" parent="1" source="s_6wC5saCBp-LXwiftdf-15" target="s_6wC5saCBp-LXwiftdf-19">
          <mxGeometry width="100" height="100" relative="1" as="geometry">
            <mxPoint x="464" y="245.0000000000001" as="sourcePoint" />
            <mxPoint x="554" y="175.0000000000001" as="targetPoint" />
          </mxGeometry>
        </mxCell>
        <mxCell id="s_6wC5saCBp-LXwiftdf-23" value="" style="edgeStyle=entityRelationEdgeStyle;fontSize=12;html=1;endArrow=ERoneToMany;rounded=0;entryX=1;entryY=0.25;entryDx=0;entryDy=0;exitX=1;exitY=0.75;exitDx=0;exitDy=0;" edge="1" parent="1" source="s_6wC5saCBp-LXwiftdf-14" target="s_6wC5saCBp-LXwiftdf-16">
          <mxGeometry width="100" height="100" relative="1" as="geometry">
            <mxPoint x="310" y="480" as="sourcePoint" />
            <mxPoint x="310" y="370.0000000000001" as="targetPoint" />
            <Array as="points">
              <mxPoint x="271" y="410" />
              <mxPoint x="320" y="370" />
            </Array>
          </mxGeometry>
        </mxCell>
        <mxCell id="s_6wC5saCBp-LXwiftdf-30" value="" style="edgeStyle=entityRelationEdgeStyle;fontSize=12;html=1;endArrow=ERmandOne;startArrow=ERmandOne;rounded=0;exitX=1;exitY=0.75;exitDx=0;exitDy=0;entryX=0;entryY=0.5;entryDx=0;entryDy=0;" edge="1" parent="1" source="s_6wC5saCBp-LXwiftdf-16" target="s_6wC5saCBp-LXwiftdf-18">
          <mxGeometry width="100" height="100" relative="1" as="geometry">
            <mxPoint x="280" y="370" as="sourcePoint" />
            <mxPoint x="380" y="270" as="targetPoint" />
          </mxGeometry>
        </mxCell>
        <mxCell id="s_6wC5saCBp-LXwiftdf-32" value="" style="edgeStyle=entityRelationEdgeStyle;fontSize=12;html=1;endArrow=ERoneToMany;rounded=0;entryX=1;entryY=0.5;entryDx=0;entryDy=0;" edge="1" parent="1" source="s_6wC5saCBp-LXwiftdf-17" target="s_6wC5saCBp-LXwiftdf-18">
          <mxGeometry width="100" height="100" relative="1" as="geometry">
            <mxPoint x="430" y="440" as="sourcePoint" />
            <mxPoint x="530" y="340" as="targetPoint" />
          </mxGeometry>
        </mxCell>
        <mxCell id="s_6wC5saCBp-LXwiftdf-37" value="" style="edgeStyle=entityRelationEdgeStyle;fontSize=12;html=1;endArrow=ERoneToMany;rounded=0;exitX=1;exitY=0.25;exitDx=0;exitDy=0;entryX=0;entryY=0.25;entryDx=0;entryDy=0;" edge="1" parent="1" source="s_6wC5saCBp-LXwiftdf-14" target="s_6wC5saCBp-LXwiftdf-18">
          <mxGeometry width="100" height="100" relative="1" as="geometry">
            <mxPoint x="250" y="400" as="sourcePoint" />
            <mxPoint x="350" y="300" as="targetPoint" />
          </mxGeometry>
        </mxCell>
        <object label="Weapon_models" model_name="Pistol MK-9" weapon_type="Pistol" manufacturer="Firearms Corporation" mode_descriptipn="Advanced 9mm caliber pistol" id="s_6wC5saCBp-LXwiftdf-51">
          <mxCell style="shape=table;startSize=30;container=1;collapsible=1;childLayout=tableLayout;fixedRows=1;rowLines=0;fontStyle=1;align=center;resizeLast=1;html=1;" vertex="1" parent="1">
            <mxGeometry x="-130" y="509" width="180" height="179" as="geometry" />
          </mxCell>
        </object>
        <mxCell id="s_6wC5saCBp-LXwiftdf-52" value="" style="shape=tableRow;horizontal=0;startSize=0;swimlaneHead=0;swimlaneBody=0;fillColor=none;collapsible=0;dropTarget=0;points=[[0,0.5],[1,0.5]];portConstraint=eastwest;top=0;left=0;right=0;bottom=1;" vertex="1" parent="s_6wC5saCBp-LXwiftdf-51">
          <mxGeometry y="30" width="180" height="30" as="geometry" />
        </mxCell>
        <mxCell id="s_6wC5saCBp-LXwiftdf-53" value="PK" style="shape=partialRectangle;connectable=0;fillColor=none;top=0;left=0;bottom=0;right=0;fontStyle=1;overflow=hidden;whiteSpace=wrap;html=1;" vertex="1" parent="s_6wC5saCBp-LXwiftdf-52">
          <mxGeometry width="30" height="30" as="geometry">
            <mxRectangle width="30" height="30" as="alternateBounds" />
          </mxGeometry>
        </mxCell>
        <mxCell id="s_6wC5saCBp-LXwiftdf-54" value="model_ID" style="shape=partialRectangle;connectable=0;fillColor=none;top=0;left=0;bottom=0;right=0;align=left;spacingLeft=6;fontStyle=5;overflow=hidden;whiteSpace=wrap;html=1;" vertex="1" parent="s_6wC5saCBp-LXwiftdf-52">
          <mxGeometry x="30" width="150" height="30" as="geometry">
            <mxRectangle width="150" height="30" as="alternateBounds" />
          </mxGeometry>
        </mxCell>
        <mxCell id="s_6wC5saCBp-LXwiftdf-55" value="" style="shape=tableRow;horizontal=0;startSize=0;swimlaneHead=0;swimlaneBody=0;fillColor=none;collapsible=0;dropTarget=0;points=[[0,0.5],[1,0.5]];portConstraint=eastwest;top=0;left=0;right=0;bottom=0;" vertex="1" parent="s_6wC5saCBp-LXwiftdf-51">
          <mxGeometry y="60" width="180" height="30" as="geometry" />
        </mxCell>
        <mxCell id="s_6wC5saCBp-LXwiftdf-56" value="" style="shape=partialRectangle;connectable=0;fillColor=none;top=0;left=0;bottom=0;right=0;editable=1;overflow=hidden;whiteSpace=wrap;html=1;" vertex="1" parent="s_6wC5saCBp-LXwiftdf-55">
          <mxGeometry width="30" height="30" as="geometry">
            <mxRectangle width="30" height="30" as="alternateBounds" />
          </mxGeometry>
        </mxCell>
        <mxCell id="s_6wC5saCBp-LXwiftdf-57" value="model_name" style="shape=partialRectangle;connectable=0;fillColor=none;top=0;left=0;bottom=0;right=0;align=left;spacingLeft=6;overflow=hidden;whiteSpace=wrap;html=1;" vertex="1" parent="s_6wC5saCBp-LXwiftdf-55">
          <mxGeometry x="30" width="150" height="30" as="geometry">
            <mxRectangle width="150" height="30" as="alternateBounds" />
          </mxGeometry>
        </mxCell>
        <mxCell id="s_6wC5saCBp-LXwiftdf-58" value="" style="shape=tableRow;horizontal=0;startSize=0;swimlaneHead=0;swimlaneBody=0;fillColor=none;collapsible=0;dropTarget=0;points=[[0,0.5],[1,0.5]];portConstraint=eastwest;top=0;left=0;right=0;bottom=0;" vertex="1" parent="s_6wC5saCBp-LXwiftdf-51">
          <mxGeometry y="90" width="180" height="30" as="geometry" />
        </mxCell>
        <mxCell id="s_6wC5saCBp-LXwiftdf-59" value="" style="shape=partialRectangle;connectable=0;fillColor=none;top=0;left=0;bottom=0;right=0;editable=1;overflow=hidden;whiteSpace=wrap;html=1;" vertex="1" parent="s_6wC5saCBp-LXwiftdf-58">
          <mxGeometry width="30" height="30" as="geometry">
            <mxRectangle width="30" height="30" as="alternateBounds" />
          </mxGeometry>
        </mxCell>
        <mxCell id="s_6wC5saCBp-LXwiftdf-60" value="weapon_type" style="shape=partialRectangle;connectable=0;fillColor=none;top=0;left=0;bottom=0;right=0;align=left;spacingLeft=6;overflow=hidden;whiteSpace=wrap;html=1;" vertex="1" parent="s_6wC5saCBp-LXwiftdf-58">
          <mxGeometry x="30" width="150" height="30" as="geometry">
            <mxRectangle width="150" height="30" as="alternateBounds" />
          </mxGeometry>
        </mxCell>
        <mxCell id="s_6wC5saCBp-LXwiftdf-61" value="" style="shape=tableRow;horizontal=0;startSize=0;swimlaneHead=0;swimlaneBody=0;fillColor=none;collapsible=0;dropTarget=0;points=[[0,0.5],[1,0.5]];portConstraint=eastwest;top=0;left=0;right=0;bottom=0;" vertex="1" parent="s_6wC5saCBp-LXwiftdf-51">
          <mxGeometry y="120" width="180" height="30" as="geometry" />
        </mxCell>
        <mxCell id="s_6wC5saCBp-LXwiftdf-62" value="" style="shape=partialRectangle;connectable=0;fillColor=none;top=0;left=0;bottom=0;right=0;editable=1;overflow=hidden;whiteSpace=wrap;html=1;" vertex="1" parent="s_6wC5saCBp-LXwiftdf-61">
          <mxGeometry width="30" height="30" as="geometry">
            <mxRectangle width="30" height="30" as="alternateBounds" />
          </mxGeometry>
        </mxCell>
        <mxCell id="s_6wC5saCBp-LXwiftdf-63" value="manufacturer" style="shape=partialRectangle;connectable=0;fillColor=none;top=0;left=0;bottom=0;right=0;align=left;spacingLeft=6;overflow=hidden;whiteSpace=wrap;html=1;" vertex="1" parent="s_6wC5saCBp-LXwiftdf-61">
          <mxGeometry x="30" width="150" height="30" as="geometry">
            <mxRectangle width="150" height="30" as="alternateBounds" />
          </mxGeometry>
        </mxCell>
        <mxCell id="s_6wC5saCBp-LXwiftdf-65" style="shape=tableRow;horizontal=0;startSize=0;swimlaneHead=0;swimlaneBody=0;fillColor=none;collapsible=0;dropTarget=0;points=[[0,0.5],[1,0.5]];portConstraint=eastwest;top=0;left=0;right=0;bottom=0;" vertex="1" parent="s_6wC5saCBp-LXwiftdf-51">
          <mxGeometry y="150" width="180" height="29" as="geometry" />
        </mxCell>
        <mxCell id="s_6wC5saCBp-LXwiftdf-66" style="shape=partialRectangle;connectable=0;fillColor=none;top=0;left=0;bottom=0;right=0;editable=1;overflow=hidden;whiteSpace=wrap;html=1;" vertex="1" parent="s_6wC5saCBp-LXwiftdf-65">
          <mxGeometry width="30" height="29" as="geometry">
            <mxRectangle width="30" height="29" as="alternateBounds" />
          </mxGeometry>
        </mxCell>
        <mxCell id="s_6wC5saCBp-LXwiftdf-67" value="model_description" style="shape=partialRectangle;connectable=0;fillColor=none;top=0;left=0;bottom=0;right=0;align=left;spacingLeft=6;overflow=hidden;whiteSpace=wrap;html=1;" vertex="1" parent="s_6wC5saCBp-LXwiftdf-65">
          <mxGeometry x="30" width="150" height="29" as="geometry">
            <mxRectangle width="150" height="29" as="alternateBounds" />
          </mxGeometry>
        </mxCell>
        <object label="Components" model_name="Pistol MK-9" weapon_type="Pistol" manufacturer="Firearms Corporation" mode_descriptipn="Advanced 9mm caliber pistol" id="s_6wC5saCBp-LXwiftdf-71">
          <mxCell style="shape=table;startSize=30;container=1;collapsible=1;childLayout=tableLayout;fixedRows=1;rowLines=0;fontStyle=1;align=center;resizeLast=1;html=1;" vertex="1" parent="1">
            <mxGeometry x="690" y="509" width="180" height="179" as="geometry" />
          </mxCell>
        </object>
        <mxCell id="s_6wC5saCBp-LXwiftdf-72" value="" style="shape=tableRow;horizontal=0;startSize=0;swimlaneHead=0;swimlaneBody=0;fillColor=none;collapsible=0;dropTarget=0;points=[[0,0.5],[1,0.5]];portConstraint=eastwest;top=0;left=0;right=0;bottom=1;" vertex="1" parent="s_6wC5saCBp-LXwiftdf-71">
          <mxGeometry y="30" width="180" height="30" as="geometry" />
        </mxCell>
        <mxCell id="s_6wC5saCBp-LXwiftdf-73" value="PK" style="shape=partialRectangle;connectable=0;fillColor=none;top=0;left=0;bottom=0;right=0;fontStyle=1;overflow=hidden;whiteSpace=wrap;html=1;" vertex="1" parent="s_6wC5saCBp-LXwiftdf-72">
          <mxGeometry width="30" height="30" as="geometry">
            <mxRectangle width="30" height="30" as="alternateBounds" />
          </mxGeometry>
        </mxCell>
        <mxCell id="s_6wC5saCBp-LXwiftdf-74" value="component_ID" style="shape=partialRectangle;connectable=0;fillColor=none;top=0;left=0;bottom=0;right=0;align=left;spacingLeft=6;fontStyle=5;overflow=hidden;whiteSpace=wrap;html=1;" vertex="1" parent="s_6wC5saCBp-LXwiftdf-72">
          <mxGeometry x="30" width="150" height="30" as="geometry">
            <mxRectangle width="150" height="30" as="alternateBounds" />
          </mxGeometry>
        </mxCell>
        <mxCell id="s_6wC5saCBp-LXwiftdf-75" value="" style="shape=tableRow;horizontal=0;startSize=0;swimlaneHead=0;swimlaneBody=0;fillColor=none;collapsible=0;dropTarget=0;points=[[0,0.5],[1,0.5]];portConstraint=eastwest;top=0;left=0;right=0;bottom=0;" vertex="1" parent="s_6wC5saCBp-LXwiftdf-71">
          <mxGeometry y="60" width="180" height="30" as="geometry" />
        </mxCell>
        <mxCell id="s_6wC5saCBp-LXwiftdf-76" value="" style="shape=partialRectangle;connectable=0;fillColor=none;top=0;left=0;bottom=0;right=0;editable=1;overflow=hidden;whiteSpace=wrap;html=1;" vertex="1" parent="s_6wC5saCBp-LXwiftdf-75">
          <mxGeometry width="30" height="30" as="geometry">
            <mxRectangle width="30" height="30" as="alternateBounds" />
          </mxGeometry>
        </mxCell>
        <mxCell id="s_6wC5saCBp-LXwiftdf-77" value="component_name" style="shape=partialRectangle;connectable=0;fillColor=none;top=0;left=0;bottom=0;right=0;align=left;spacingLeft=6;overflow=hidden;whiteSpace=wrap;html=1;" vertex="1" parent="s_6wC5saCBp-LXwiftdf-75">
          <mxGeometry x="30" width="150" height="30" as="geometry">
            <mxRectangle width="150" height="30" as="alternateBounds" />
          </mxGeometry>
        </mxCell>
        <mxCell id="s_6wC5saCBp-LXwiftdf-78" value="" style="shape=tableRow;horizontal=0;startSize=0;swimlaneHead=0;swimlaneBody=0;fillColor=none;collapsible=0;dropTarget=0;points=[[0,0.5],[1,0.5]];portConstraint=eastwest;top=0;left=0;right=0;bottom=0;" vertex="1" parent="s_6wC5saCBp-LXwiftdf-71">
          <mxGeometry y="90" width="180" height="30" as="geometry" />
        </mxCell>
        <mxCell id="s_6wC5saCBp-LXwiftdf-79" value="" style="shape=partialRectangle;connectable=0;fillColor=none;top=0;left=0;bottom=0;right=0;editable=1;overflow=hidden;whiteSpace=wrap;html=1;" vertex="1" parent="s_6wC5saCBp-LXwiftdf-78">
          <mxGeometry width="30" height="30" as="geometry">
            <mxRectangle width="30" height="30" as="alternateBounds" />
          </mxGeometry>
        </mxCell>
        <mxCell id="s_6wC5saCBp-LXwiftdf-80" value="component_description" style="shape=partialRectangle;connectable=0;fillColor=none;top=0;left=0;bottom=0;right=0;align=left;spacingLeft=6;overflow=hidden;whiteSpace=wrap;html=1;" vertex="1" parent="s_6wC5saCBp-LXwiftdf-78">
          <mxGeometry x="30" width="150" height="30" as="geometry">
            <mxRectangle width="150" height="30" as="alternateBounds" />
          </mxGeometry>
        </mxCell>
        <mxCell id="s_6wC5saCBp-LXwiftdf-81" value="" style="shape=tableRow;horizontal=0;startSize=0;swimlaneHead=0;swimlaneBody=0;fillColor=none;collapsible=0;dropTarget=0;points=[[0,0.5],[1,0.5]];portConstraint=eastwest;top=0;left=0;right=0;bottom=0;" vertex="1" parent="s_6wC5saCBp-LXwiftdf-71">
          <mxGeometry y="120" width="180" height="30" as="geometry" />
        </mxCell>
        <mxCell id="s_6wC5saCBp-LXwiftdf-82" value="" style="shape=partialRectangle;connectable=0;fillColor=none;top=0;left=0;bottom=0;right=0;editable=1;overflow=hidden;whiteSpace=wrap;html=1;" vertex="1" parent="s_6wC5saCBp-LXwiftdf-81">
          <mxGeometry width="30" height="30" as="geometry">
            <mxRectangle width="30" height="30" as="alternateBounds" />
          </mxGeometry>
        </mxCell>
        <mxCell id="s_6wC5saCBp-LXwiftdf-83" value="unit_price" style="shape=partialRectangle;connectable=0;fillColor=none;top=0;left=0;bottom=0;right=0;align=left;spacingLeft=6;overflow=hidden;whiteSpace=wrap;html=1;" vertex="1" parent="s_6wC5saCBp-LXwiftdf-81">
          <mxGeometry x="30" width="150" height="30" as="geometry">
            <mxRectangle width="150" height="30" as="alternateBounds" />
          </mxGeometry>
        </mxCell>
        <mxCell id="s_6wC5saCBp-LXwiftdf-84" style="shape=tableRow;horizontal=0;startSize=0;swimlaneHead=0;swimlaneBody=0;fillColor=none;collapsible=0;dropTarget=0;points=[[0,0.5],[1,0.5]];portConstraint=eastwest;top=0;left=0;right=0;bottom=0;" vertex="1" parent="s_6wC5saCBp-LXwiftdf-71">
          <mxGeometry y="150" width="180" height="29" as="geometry" />
        </mxCell>
        <mxCell id="s_6wC5saCBp-LXwiftdf-85" style="shape=partialRectangle;connectable=0;fillColor=none;top=0;left=0;bottom=0;right=0;editable=1;overflow=hidden;whiteSpace=wrap;html=1;" vertex="1" parent="s_6wC5saCBp-LXwiftdf-84">
          <mxGeometry width="30" height="29" as="geometry">
            <mxRectangle width="30" height="29" as="alternateBounds" />
          </mxGeometry>
        </mxCell>
        <mxCell id="s_6wC5saCBp-LXwiftdf-86" value="in_stock" style="shape=partialRectangle;connectable=0;fillColor=none;top=0;left=0;bottom=0;right=0;align=left;spacingLeft=6;overflow=hidden;whiteSpace=wrap;html=1;" vertex="1" parent="s_6wC5saCBp-LXwiftdf-84">
          <mxGeometry x="30" width="150" height="29" as="geometry">
            <mxRectangle width="150" height="29" as="alternateBounds" />
          </mxGeometry>
        </mxCell>
        <object label="Orders" model_name="Pistol MK-9" weapon_type="Pistol" manufacturer="Firearms Corporation" mode_descriptipn="Advanced 9mm caliber pistol" id="s_6wC5saCBp-LXwiftdf-87">
          <mxCell style="shape=table;startSize=29;container=1;collapsible=1;childLayout=tableLayout;fixedRows=1;rowLines=0;fontStyle=1;align=center;resizeLast=1;html=1;" vertex="1" parent="1">
            <mxGeometry x="-130" y="860" width="180" height="207" as="geometry" />
          </mxCell>
        </object>
        <mxCell id="s_6wC5saCBp-LXwiftdf-88" value="" style="shape=tableRow;horizontal=0;startSize=0;swimlaneHead=0;swimlaneBody=0;fillColor=none;collapsible=0;dropTarget=0;points=[[0,0.5],[1,0.5]];portConstraint=eastwest;top=0;left=0;right=0;bottom=1;" vertex="1" parent="s_6wC5saCBp-LXwiftdf-87">
          <mxGeometry y="29" width="180" height="30" as="geometry" />
        </mxCell>
        <mxCell id="s_6wC5saCBp-LXwiftdf-89" value="PK" style="shape=partialRectangle;connectable=0;fillColor=none;top=0;left=0;bottom=0;right=0;fontStyle=1;overflow=hidden;whiteSpace=wrap;html=1;" vertex="1" parent="s_6wC5saCBp-LXwiftdf-88">
          <mxGeometry width="30" height="30" as="geometry">
            <mxRectangle width="30" height="30" as="alternateBounds" />
          </mxGeometry>
        </mxCell>
        <mxCell id="s_6wC5saCBp-LXwiftdf-90" value="order_ID" style="shape=partialRectangle;connectable=0;fillColor=none;top=0;left=0;bottom=0;right=0;align=left;spacingLeft=6;fontStyle=5;overflow=hidden;whiteSpace=wrap;html=1;" vertex="1" parent="s_6wC5saCBp-LXwiftdf-88">
          <mxGeometry x="30" width="150" height="30" as="geometry">
            <mxRectangle width="150" height="30" as="alternateBounds" />
          </mxGeometry>
        </mxCell>
        <mxCell id="s_6wC5saCBp-LXwiftdf-91" value="" style="shape=tableRow;horizontal=0;startSize=0;swimlaneHead=0;swimlaneBody=0;fillColor=none;collapsible=0;dropTarget=0;points=[[0,0.5],[1,0.5]];portConstraint=eastwest;top=0;left=0;right=0;bottom=0;" vertex="1" parent="s_6wC5saCBp-LXwiftdf-87">
          <mxGeometry y="59" width="180" height="29" as="geometry" />
        </mxCell>
        <mxCell id="s_6wC5saCBp-LXwiftdf-92" value="" style="shape=partialRectangle;connectable=0;fillColor=none;top=0;left=0;bottom=0;right=0;editable=1;overflow=hidden;whiteSpace=wrap;html=1;" vertex="1" parent="s_6wC5saCBp-LXwiftdf-91">
          <mxGeometry width="30" height="29" as="geometry">
            <mxRectangle width="30" height="29" as="alternateBounds" />
          </mxGeometry>
        </mxCell>
        <mxCell id="s_6wC5saCBp-LXwiftdf-93" value="weapon_model_ID" style="shape=partialRectangle;connectable=0;fillColor=none;top=0;left=0;bottom=0;right=0;align=left;spacingLeft=6;overflow=hidden;whiteSpace=wrap;html=1;" vertex="1" parent="s_6wC5saCBp-LXwiftdf-91">
          <mxGeometry x="30" width="150" height="29" as="geometry">
            <mxRectangle width="150" height="29" as="alternateBounds" />
          </mxGeometry>
        </mxCell>
        <mxCell id="s_6wC5saCBp-LXwiftdf-94" value="" style="shape=tableRow;horizontal=0;startSize=0;swimlaneHead=0;swimlaneBody=0;fillColor=none;collapsible=0;dropTarget=0;points=[[0,0.5],[1,0.5]];portConstraint=eastwest;top=0;left=0;right=0;bottom=0;" vertex="1" parent="s_6wC5saCBp-LXwiftdf-87">
          <mxGeometry y="88" width="180" height="30" as="geometry" />
        </mxCell>
        <mxCell id="s_6wC5saCBp-LXwiftdf-95" value="" style="shape=partialRectangle;connectable=0;fillColor=none;top=0;left=0;bottom=0;right=0;editable=1;overflow=hidden;whiteSpace=wrap;html=1;" vertex="1" parent="s_6wC5saCBp-LXwiftdf-94">
          <mxGeometry width="30" height="30" as="geometry">
            <mxRectangle width="30" height="30" as="alternateBounds" />
          </mxGeometry>
        </mxCell>
        <mxCell id="s_6wC5saCBp-LXwiftdf-96" value="order_date" style="shape=partialRectangle;connectable=0;fillColor=none;top=0;left=0;bottom=0;right=0;align=left;spacingLeft=6;overflow=hidden;whiteSpace=wrap;html=1;" vertex="1" parent="s_6wC5saCBp-LXwiftdf-94">
          <mxGeometry x="30" width="150" height="30" as="geometry">
            <mxRectangle width="150" height="30" as="alternateBounds" />
          </mxGeometry>
        </mxCell>
        <mxCell id="s_6wC5saCBp-LXwiftdf-97" value="" style="shape=tableRow;horizontal=0;startSize=0;swimlaneHead=0;swimlaneBody=0;fillColor=none;collapsible=0;dropTarget=0;points=[[0,0.5],[1,0.5]];portConstraint=eastwest;top=0;left=0;right=0;bottom=0;" vertex="1" parent="s_6wC5saCBp-LXwiftdf-87">
          <mxGeometry y="118" width="180" height="30" as="geometry" />
        </mxCell>
        <mxCell id="s_6wC5saCBp-LXwiftdf-98" value="" style="shape=partialRectangle;connectable=0;fillColor=none;top=0;left=0;bottom=0;right=0;editable=1;overflow=hidden;whiteSpace=wrap;html=1;" vertex="1" parent="s_6wC5saCBp-LXwiftdf-97">
          <mxGeometry width="30" height="30" as="geometry">
            <mxRectangle width="30" height="30" as="alternateBounds" />
          </mxGeometry>
        </mxCell>
        <mxCell id="s_6wC5saCBp-LXwiftdf-99" value="expected_delivery_date" style="shape=partialRectangle;connectable=0;fillColor=none;top=0;left=0;bottom=0;right=0;align=left;spacingLeft=6;overflow=hidden;whiteSpace=wrap;html=1;" vertex="1" parent="s_6wC5saCBp-LXwiftdf-97">
          <mxGeometry x="30" width="150" height="30" as="geometry">
            <mxRectangle width="150" height="30" as="alternateBounds" />
          </mxGeometry>
        </mxCell>
        <mxCell id="s_6wC5saCBp-LXwiftdf-100" style="shape=tableRow;horizontal=0;startSize=0;swimlaneHead=0;swimlaneBody=0;fillColor=none;collapsible=0;dropTarget=0;points=[[0,0.5],[1,0.5]];portConstraint=eastwest;top=0;left=0;right=0;bottom=0;" vertex="1" parent="s_6wC5saCBp-LXwiftdf-87">
          <mxGeometry y="148" width="180" height="29" as="geometry" />
        </mxCell>
        <mxCell id="s_6wC5saCBp-LXwiftdf-101" style="shape=partialRectangle;connectable=0;fillColor=none;top=0;left=0;bottom=0;right=0;editable=1;overflow=hidden;whiteSpace=wrap;html=1;" vertex="1" parent="s_6wC5saCBp-LXwiftdf-100">
          <mxGeometry width="30" height="29" as="geometry">
            <mxRectangle width="30" height="29" as="alternateBounds" />
          </mxGeometry>
        </mxCell>
        <mxCell id="s_6wC5saCBp-LXwiftdf-102" value="order_status" style="shape=partialRectangle;connectable=0;fillColor=none;top=0;left=0;bottom=0;right=0;align=left;spacingLeft=6;overflow=hidden;whiteSpace=wrap;html=1;" vertex="1" parent="s_6wC5saCBp-LXwiftdf-100">
          <mxGeometry x="30" width="150" height="29" as="geometry">
            <mxRectangle width="150" height="29" as="alternateBounds" />
          </mxGeometry>
        </mxCell>
        <mxCell id="s_6wC5saCBp-LXwiftdf-103" style="shape=tableRow;horizontal=0;startSize=0;swimlaneHead=0;swimlaneBody=0;fillColor=none;collapsible=0;dropTarget=0;points=[[0,0.5],[1,0.5]];portConstraint=eastwest;top=0;left=0;right=0;bottom=0;" vertex="1" parent="s_6wC5saCBp-LXwiftdf-87">
          <mxGeometry y="177" width="180" height="29" as="geometry" />
        </mxCell>
        <mxCell id="s_6wC5saCBp-LXwiftdf-104" style="shape=partialRectangle;connectable=0;fillColor=none;top=0;left=0;bottom=0;right=0;editable=1;overflow=hidden;whiteSpace=wrap;html=1;" vertex="1" parent="s_6wC5saCBp-LXwiftdf-103">
          <mxGeometry width="30" height="29" as="geometry">
            <mxRectangle width="30" height="29" as="alternateBounds" />
          </mxGeometry>
        </mxCell>
        <mxCell id="s_6wC5saCBp-LXwiftdf-105" value="total_order_cost" style="shape=partialRectangle;connectable=0;fillColor=none;top=0;left=0;bottom=0;right=0;align=left;spacingLeft=6;overflow=hidden;whiteSpace=wrap;html=1;" vertex="1" parent="s_6wC5saCBp-LXwiftdf-103">
          <mxGeometry x="30" width="150" height="29" as="geometry">
            <mxRectangle width="150" height="29" as="alternateBounds" />
          </mxGeometry>
        </mxCell>
        <object label="Employees" model_name="Pistol MK-9" weapon_type="Pistol" manufacturer="Firearms Corporation" mode_descriptipn="Advanced 9mm caliber pistol" id="s_6wC5saCBp-LXwiftdf-106">
          <mxCell style="shape=table;startSize=29;container=1;collapsible=1;childLayout=tableLayout;fixedRows=1;rowLines=0;fontStyle=1;align=center;resizeLast=1;html=1;" vertex="1" parent="1">
            <mxGeometry x="690" y="860" width="180" height="236" as="geometry" />
          </mxCell>
        </object>
        <mxCell id="s_6wC5saCBp-LXwiftdf-107" value="" style="shape=tableRow;horizontal=0;startSize=0;swimlaneHead=0;swimlaneBody=0;fillColor=none;collapsible=0;dropTarget=0;points=[[0,0.5],[1,0.5]];portConstraint=eastwest;top=0;left=0;right=0;bottom=1;" vertex="1" parent="s_6wC5saCBp-LXwiftdf-106">
          <mxGeometry y="29" width="180" height="30" as="geometry" />
        </mxCell>
        <mxCell id="s_6wC5saCBp-LXwiftdf-108" value="PK" style="shape=partialRectangle;connectable=0;fillColor=none;top=0;left=0;bottom=0;right=0;fontStyle=1;overflow=hidden;whiteSpace=wrap;html=1;" vertex="1" parent="s_6wC5saCBp-LXwiftdf-107">
          <mxGeometry width="30" height="30" as="geometry">
            <mxRectangle width="30" height="30" as="alternateBounds" />
          </mxGeometry>
        </mxCell>
        <mxCell id="s_6wC5saCBp-LXwiftdf-109" value="employee_ID" style="shape=partialRectangle;connectable=0;fillColor=none;top=0;left=0;bottom=0;right=0;align=left;spacingLeft=6;fontStyle=5;overflow=hidden;whiteSpace=wrap;html=1;" vertex="1" parent="s_6wC5saCBp-LXwiftdf-107">
          <mxGeometry x="30" width="150" height="30" as="geometry">
            <mxRectangle width="150" height="30" as="alternateBounds" />
          </mxGeometry>
        </mxCell>
        <mxCell id="s_6wC5saCBp-LXwiftdf-110" value="" style="shape=tableRow;horizontal=0;startSize=0;swimlaneHead=0;swimlaneBody=0;fillColor=none;collapsible=0;dropTarget=0;points=[[0,0.5],[1,0.5]];portConstraint=eastwest;top=0;left=0;right=0;bottom=0;" vertex="1" parent="s_6wC5saCBp-LXwiftdf-106">
          <mxGeometry y="59" width="180" height="29" as="geometry" />
        </mxCell>
        <mxCell id="s_6wC5saCBp-LXwiftdf-111" value="" style="shape=partialRectangle;connectable=0;fillColor=none;top=0;left=0;bottom=0;right=0;editable=1;overflow=hidden;whiteSpace=wrap;html=1;" vertex="1" parent="s_6wC5saCBp-LXwiftdf-110">
          <mxGeometry width="30" height="29" as="geometry">
            <mxRectangle width="30" height="29" as="alternateBounds" />
          </mxGeometry>
        </mxCell>
        <mxCell id="s_6wC5saCBp-LXwiftdf-112" value="employee_first_name" style="shape=partialRectangle;connectable=0;fillColor=none;top=0;left=0;bottom=0;right=0;align=left;spacingLeft=6;overflow=hidden;whiteSpace=wrap;html=1;" vertex="1" parent="s_6wC5saCBp-LXwiftdf-110">
          <mxGeometry x="30" width="150" height="29" as="geometry">
            <mxRectangle width="150" height="29" as="alternateBounds" />
          </mxGeometry>
        </mxCell>
        <mxCell id="s_6wC5saCBp-LXwiftdf-113" value="" style="shape=tableRow;horizontal=0;startSize=0;swimlaneHead=0;swimlaneBody=0;fillColor=none;collapsible=0;dropTarget=0;points=[[0,0.5],[1,0.5]];portConstraint=eastwest;top=0;left=0;right=0;bottom=0;" vertex="1" parent="s_6wC5saCBp-LXwiftdf-106">
          <mxGeometry y="88" width="180" height="30" as="geometry" />
        </mxCell>
        <mxCell id="s_6wC5saCBp-LXwiftdf-114" value="" style="shape=partialRectangle;connectable=0;fillColor=none;top=0;left=0;bottom=0;right=0;editable=1;overflow=hidden;whiteSpace=wrap;html=1;" vertex="1" parent="s_6wC5saCBp-LXwiftdf-113">
          <mxGeometry width="30" height="30" as="geometry">
            <mxRectangle width="30" height="30" as="alternateBounds" />
          </mxGeometry>
        </mxCell>
        <mxCell id="s_6wC5saCBp-LXwiftdf-115" value="employee_second_name" style="shape=partialRectangle;connectable=0;fillColor=none;top=0;left=0;bottom=0;right=0;align=left;spacingLeft=6;overflow=hidden;whiteSpace=wrap;html=1;" vertex="1" parent="s_6wC5saCBp-LXwiftdf-113">
          <mxGeometry x="30" width="150" height="30" as="geometry">
            <mxRectangle width="150" height="30" as="alternateBounds" />
          </mxGeometry>
        </mxCell>
        <mxCell id="s_6wC5saCBp-LXwiftdf-116" value="" style="shape=tableRow;horizontal=0;startSize=0;swimlaneHead=0;swimlaneBody=0;fillColor=none;collapsible=0;dropTarget=0;points=[[0,0.5],[1,0.5]];portConstraint=eastwest;top=0;left=0;right=0;bottom=0;" vertex="1" parent="s_6wC5saCBp-LXwiftdf-106">
          <mxGeometry y="118" width="180" height="30" as="geometry" />
        </mxCell>
        <mxCell id="s_6wC5saCBp-LXwiftdf-117" value="" style="shape=partialRectangle;connectable=0;fillColor=none;top=0;left=0;bottom=0;right=0;editable=1;overflow=hidden;whiteSpace=wrap;html=1;" vertex="1" parent="s_6wC5saCBp-LXwiftdf-116">
          <mxGeometry width="30" height="30" as="geometry">
            <mxRectangle width="30" height="30" as="alternateBounds" />
          </mxGeometry>
        </mxCell>
        <mxCell id="s_6wC5saCBp-LXwiftdf-118" value="position" style="shape=partialRectangle;connectable=0;fillColor=none;top=0;left=0;bottom=0;right=0;align=left;spacingLeft=6;overflow=hidden;whiteSpace=wrap;html=1;" vertex="1" parent="s_6wC5saCBp-LXwiftdf-116">
          <mxGeometry x="30" width="150" height="30" as="geometry">
            <mxRectangle width="150" height="30" as="alternateBounds" />
          </mxGeometry>
        </mxCell>
        <mxCell id="s_6wC5saCBp-LXwiftdf-119" style="shape=tableRow;horizontal=0;startSize=0;swimlaneHead=0;swimlaneBody=0;fillColor=none;collapsible=0;dropTarget=0;points=[[0,0.5],[1,0.5]];portConstraint=eastwest;top=0;left=0;right=0;bottom=0;" vertex="1" parent="s_6wC5saCBp-LXwiftdf-106">
          <mxGeometry y="148" width="180" height="29" as="geometry" />
        </mxCell>
        <mxCell id="s_6wC5saCBp-LXwiftdf-120" style="shape=partialRectangle;connectable=0;fillColor=none;top=0;left=0;bottom=0;right=0;editable=1;overflow=hidden;whiteSpace=wrap;html=1;" vertex="1" parent="s_6wC5saCBp-LXwiftdf-119">
          <mxGeometry width="30" height="29" as="geometry">
            <mxRectangle width="30" height="29" as="alternateBounds" />
          </mxGeometry>
        </mxCell>
        <mxCell id="s_6wC5saCBp-LXwiftdf-121" value="employment_date" style="shape=partialRectangle;connectable=0;fillColor=none;top=0;left=0;bottom=0;right=0;align=left;spacingLeft=6;overflow=hidden;whiteSpace=wrap;html=1;" vertex="1" parent="s_6wC5saCBp-LXwiftdf-119">
          <mxGeometry x="30" width="150" height="29" as="geometry">
            <mxRectangle width="150" height="29" as="alternateBounds" />
          </mxGeometry>
        </mxCell>
        <mxCell id="s_6wC5saCBp-LXwiftdf-122" style="shape=tableRow;horizontal=0;startSize=0;swimlaneHead=0;swimlaneBody=0;fillColor=none;collapsible=0;dropTarget=0;points=[[0,0.5],[1,0.5]];portConstraint=eastwest;top=0;left=0;right=0;bottom=0;" vertex="1" parent="s_6wC5saCBp-LXwiftdf-106">
          <mxGeometry y="177" width="180" height="29" as="geometry" />
        </mxCell>
        <mxCell id="s_6wC5saCBp-LXwiftdf-123" style="shape=partialRectangle;connectable=0;fillColor=none;top=0;left=0;bottom=0;right=0;editable=1;overflow=hidden;whiteSpace=wrap;html=1;" vertex="1" parent="s_6wC5saCBp-LXwiftdf-122">
          <mxGeometry width="30" height="29" as="geometry">
            <mxRectangle width="30" height="29" as="alternateBounds" />
          </mxGeometry>
        </mxCell>
        <mxCell id="s_6wC5saCBp-LXwiftdf-124" value="salary" style="shape=partialRectangle;connectable=0;fillColor=none;top=0;left=0;bottom=0;right=0;align=left;spacingLeft=6;overflow=hidden;whiteSpace=wrap;html=1;" vertex="1" parent="s_6wC5saCBp-LXwiftdf-122">
          <mxGeometry x="30" width="150" height="29" as="geometry">
            <mxRectangle width="150" height="29" as="alternateBounds" />
          </mxGeometry>
        </mxCell>
        <mxCell id="s_6wC5saCBp-LXwiftdf-125" style="shape=tableRow;horizontal=0;startSize=0;swimlaneHead=0;swimlaneBody=0;fillColor=none;collapsible=0;dropTarget=0;points=[[0,0.5],[1,0.5]];portConstraint=eastwest;top=0;left=0;right=0;bottom=0;" vertex="1" parent="s_6wC5saCBp-LXwiftdf-106">
          <mxGeometry y="206" width="180" height="29" as="geometry" />
        </mxCell>
        <mxCell id="s_6wC5saCBp-LXwiftdf-126" style="shape=partialRectangle;connectable=0;fillColor=none;top=0;left=0;bottom=0;right=0;editable=1;overflow=hidden;whiteSpace=wrap;html=1;" vertex="1" parent="s_6wC5saCBp-LXwiftdf-125">
          <mxGeometry width="30" height="29" as="geometry">
            <mxRectangle width="30" height="29" as="alternateBounds" />
          </mxGeometry>
        </mxCell>
        <mxCell id="s_6wC5saCBp-LXwiftdf-127" value="employee_contact" style="shape=partialRectangle;connectable=0;fillColor=none;top=0;left=0;bottom=0;right=0;align=left;spacingLeft=6;overflow=hidden;whiteSpace=wrap;html=1;" vertex="1" parent="s_6wC5saCBp-LXwiftdf-125">
          <mxGeometry x="30" width="150" height="29" as="geometry">
            <mxRectangle width="150" height="29" as="alternateBounds" />
          </mxGeometry>
        </mxCell>
        <object label="Productions" model_name="Pistol MK-9" weapon_type="Pistol" manufacturer="Firearms Corporation" mode_descriptipn="Advanced 9mm caliber pistol" id="s_6wC5saCBp-LXwiftdf-128">
          <mxCell style="shape=table;startSize=29;container=1;collapsible=1;childLayout=tableLayout;fixedRows=1;rowLines=0;fontStyle=1;align=center;resizeLast=1;html=1;" vertex="1" parent="1">
            <mxGeometry x="260" y="860" width="210" height="207" as="geometry" />
          </mxCell>
        </object>
        <mxCell id="s_6wC5saCBp-LXwiftdf-129" value="" style="shape=tableRow;horizontal=0;startSize=0;swimlaneHead=0;swimlaneBody=0;fillColor=none;collapsible=0;dropTarget=0;points=[[0,0.5],[1,0.5]];portConstraint=eastwest;top=0;left=0;right=0;bottom=1;" vertex="1" parent="s_6wC5saCBp-LXwiftdf-128">
          <mxGeometry y="29" width="210" height="30" as="geometry" />
        </mxCell>
        <mxCell id="s_6wC5saCBp-LXwiftdf-130" value="PK" style="shape=partialRectangle;connectable=0;fillColor=none;top=0;left=0;bottom=0;right=0;fontStyle=1;overflow=hidden;whiteSpace=wrap;html=1;" vertex="1" parent="s_6wC5saCBp-LXwiftdf-129">
          <mxGeometry width="30" height="30" as="geometry">
            <mxRectangle width="30" height="30" as="alternateBounds" />
          </mxGeometry>
        </mxCell>
        <mxCell id="s_6wC5saCBp-LXwiftdf-131" value="production_ID" style="shape=partialRectangle;connectable=0;fillColor=none;top=0;left=0;bottom=0;right=0;align=left;spacingLeft=6;fontStyle=5;overflow=hidden;whiteSpace=wrap;html=1;" vertex="1" parent="s_6wC5saCBp-LXwiftdf-129">
          <mxGeometry x="30" width="180" height="30" as="geometry">
            <mxRectangle width="180" height="30" as="alternateBounds" />
          </mxGeometry>
        </mxCell>
        <mxCell id="s_6wC5saCBp-LXwiftdf-132" value="" style="shape=tableRow;horizontal=0;startSize=0;swimlaneHead=0;swimlaneBody=0;fillColor=none;collapsible=0;dropTarget=0;points=[[0,0.5],[1,0.5]];portConstraint=eastwest;top=0;left=0;right=0;bottom=0;" vertex="1" parent="s_6wC5saCBp-LXwiftdf-128">
          <mxGeometry y="59" width="210" height="29" as="geometry" />
        </mxCell>
        <mxCell id="s_6wC5saCBp-LXwiftdf-133" value="" style="shape=partialRectangle;connectable=0;fillColor=none;top=0;left=0;bottom=0;right=0;editable=1;overflow=hidden;whiteSpace=wrap;html=1;" vertex="1" parent="s_6wC5saCBp-LXwiftdf-132">
          <mxGeometry width="30" height="29" as="geometry">
            <mxRectangle width="30" height="29" as="alternateBounds" />
          </mxGeometry>
        </mxCell>
        <mxCell id="s_6wC5saCBp-LXwiftdf-134" value="weapon_model_ID" style="shape=partialRectangle;connectable=0;fillColor=none;top=0;left=0;bottom=0;right=0;align=left;spacingLeft=6;overflow=hidden;whiteSpace=wrap;html=1;" vertex="1" parent="s_6wC5saCBp-LXwiftdf-132">
          <mxGeometry x="30" width="180" height="29" as="geometry">
            <mxRectangle width="180" height="29" as="alternateBounds" />
          </mxGeometry>
        </mxCell>
        <mxCell id="s_6wC5saCBp-LXwiftdf-135" value="" style="shape=tableRow;horizontal=0;startSize=0;swimlaneHead=0;swimlaneBody=0;fillColor=none;collapsible=0;dropTarget=0;points=[[0,0.5],[1,0.5]];portConstraint=eastwest;top=0;left=0;right=0;bottom=0;" vertex="1" parent="s_6wC5saCBp-LXwiftdf-128">
          <mxGeometry y="88" width="210" height="30" as="geometry" />
        </mxCell>
        <mxCell id="s_6wC5saCBp-LXwiftdf-136" value="" style="shape=partialRectangle;connectable=0;fillColor=none;top=0;left=0;bottom=0;right=0;editable=1;overflow=hidden;whiteSpace=wrap;html=1;" vertex="1" parent="s_6wC5saCBp-LXwiftdf-135">
          <mxGeometry width="30" height="30" as="geometry">
            <mxRectangle width="30" height="30" as="alternateBounds" />
          </mxGeometry>
        </mxCell>
        <mxCell id="s_6wC5saCBp-LXwiftdf-137" value="production_start_date" style="shape=partialRectangle;connectable=0;fillColor=none;top=0;left=0;bottom=0;right=0;align=left;spacingLeft=6;overflow=hidden;whiteSpace=wrap;html=1;" vertex="1" parent="s_6wC5saCBp-LXwiftdf-135">
          <mxGeometry x="30" width="180" height="30" as="geometry">
            <mxRectangle width="180" height="30" as="alternateBounds" />
          </mxGeometry>
        </mxCell>
        <mxCell id="s_6wC5saCBp-LXwiftdf-138" value="" style="shape=tableRow;horizontal=0;startSize=0;swimlaneHead=0;swimlaneBody=0;fillColor=none;collapsible=0;dropTarget=0;points=[[0,0.5],[1,0.5]];portConstraint=eastwest;top=0;left=0;right=0;bottom=0;" vertex="1" parent="s_6wC5saCBp-LXwiftdf-128">
          <mxGeometry y="118" width="210" height="30" as="geometry" />
        </mxCell>
        <mxCell id="s_6wC5saCBp-LXwiftdf-139" value="" style="shape=partialRectangle;connectable=0;fillColor=none;top=0;left=0;bottom=0;right=0;editable=1;overflow=hidden;whiteSpace=wrap;html=1;" vertex="1" parent="s_6wC5saCBp-LXwiftdf-138">
          <mxGeometry width="30" height="30" as="geometry">
            <mxRectangle width="30" height="30" as="alternateBounds" />
          </mxGeometry>
        </mxCell>
        <mxCell id="s_6wC5saCBp-LXwiftdf-140" value="estimated_completion_date" style="shape=partialRectangle;connectable=0;fillColor=none;top=0;left=0;bottom=0;right=0;align=left;spacingLeft=6;overflow=hidden;whiteSpace=wrap;html=1;" vertex="1" parent="s_6wC5saCBp-LXwiftdf-138">
          <mxGeometry x="30" width="180" height="30" as="geometry">
            <mxRectangle width="180" height="30" as="alternateBounds" />
          </mxGeometry>
        </mxCell>
        <mxCell id="s_6wC5saCBp-LXwiftdf-141" style="shape=tableRow;horizontal=0;startSize=0;swimlaneHead=0;swimlaneBody=0;fillColor=none;collapsible=0;dropTarget=0;points=[[0,0.5],[1,0.5]];portConstraint=eastwest;top=0;left=0;right=0;bottom=0;" vertex="1" parent="s_6wC5saCBp-LXwiftdf-128">
          <mxGeometry y="148" width="210" height="29" as="geometry" />
        </mxCell>
        <mxCell id="s_6wC5saCBp-LXwiftdf-142" style="shape=partialRectangle;connectable=0;fillColor=none;top=0;left=0;bottom=0;right=0;editable=1;overflow=hidden;whiteSpace=wrap;html=1;" vertex="1" parent="s_6wC5saCBp-LXwiftdf-141">
          <mxGeometry width="30" height="29" as="geometry">
            <mxRectangle width="30" height="29" as="alternateBounds" />
          </mxGeometry>
        </mxCell>
        <mxCell id="s_6wC5saCBp-LXwiftdf-143" value="production_status" style="shape=partialRectangle;connectable=0;fillColor=none;top=0;left=0;bottom=0;right=0;align=left;spacingLeft=6;overflow=hidden;whiteSpace=wrap;html=1;" vertex="1" parent="s_6wC5saCBp-LXwiftdf-141">
          <mxGeometry x="30" width="180" height="29" as="geometry">
            <mxRectangle width="180" height="29" as="alternateBounds" />
          </mxGeometry>
        </mxCell>
        <mxCell id="s_6wC5saCBp-LXwiftdf-144" style="shape=tableRow;horizontal=0;startSize=0;swimlaneHead=0;swimlaneBody=0;fillColor=none;collapsible=0;dropTarget=0;points=[[0,0.5],[1,0.5]];portConstraint=eastwest;top=0;left=0;right=0;bottom=0;" vertex="1" parent="s_6wC5saCBp-LXwiftdf-128">
          <mxGeometry y="177" width="210" height="29" as="geometry" />
        </mxCell>
        <mxCell id="s_6wC5saCBp-LXwiftdf-145" style="shape=partialRectangle;connectable=0;fillColor=none;top=0;left=0;bottom=0;right=0;editable=1;overflow=hidden;whiteSpace=wrap;html=1;" vertex="1" parent="s_6wC5saCBp-LXwiftdf-144">
          <mxGeometry width="30" height="29" as="geometry">
            <mxRectangle width="30" height="29" as="alternateBounds" />
          </mxGeometry>
        </mxCell>
        <mxCell id="s_6wC5saCBp-LXwiftdf-146" value="responsible_employee_ID" style="shape=partialRectangle;connectable=0;fillColor=none;top=0;left=0;bottom=0;right=0;align=left;spacingLeft=6;overflow=hidden;whiteSpace=wrap;html=1;" vertex="1" parent="s_6wC5saCBp-LXwiftdf-144">
          <mxGeometry x="30" width="180" height="29" as="geometry">
            <mxRectangle width="180" height="29" as="alternateBounds" />
          </mxGeometry>
        </mxCell>
        <object label="Model_components" model_name="Pistol MK-9" weapon_type="Pistol" manufacturer="Firearms Corporation" mode_descriptipn="Advanced 9mm caliber pistol" id="s_6wC5saCBp-LXwiftdf-150">
          <mxCell style="shape=table;startSize=29;container=1;collapsible=1;childLayout=tableLayout;fixedRows=1;rowLines=0;fontStyle=1;align=center;resizeLast=1;html=1;" vertex="1" parent="1">
            <mxGeometry x="260" y="509" width="210" height="151.00000000000023" as="geometry" />
          </mxCell>
        </object>
        <mxCell id="s_6wC5saCBp-LXwiftdf-151" value="" style="shape=tableRow;horizontal=0;startSize=0;swimlaneHead=0;swimlaneBody=0;fillColor=none;collapsible=0;dropTarget=0;points=[[0,0.5],[1,0.5]];portConstraint=eastwest;top=0;left=0;right=0;bottom=1;" vertex="1" parent="s_6wC5saCBp-LXwiftdf-150">
          <mxGeometry y="29" width="210" height="30" as="geometry" />
        </mxCell>
        <mxCell id="s_6wC5saCBp-LXwiftdf-152" value="PK" style="shape=partialRectangle;connectable=0;fillColor=none;top=0;left=0;bottom=0;right=0;fontStyle=1;overflow=hidden;whiteSpace=wrap;html=1;" vertex="1" parent="s_6wC5saCBp-LXwiftdf-151">
          <mxGeometry width="30" height="30" as="geometry">
            <mxRectangle width="30" height="30" as="alternateBounds" />
          </mxGeometry>
        </mxCell>
        <mxCell id="s_6wC5saCBp-LXwiftdf-153" value="entry_ID" style="shape=partialRectangle;connectable=0;fillColor=none;top=0;left=0;bottom=0;right=0;align=left;spacingLeft=6;fontStyle=5;overflow=hidden;whiteSpace=wrap;html=1;" vertex="1" parent="s_6wC5saCBp-LXwiftdf-151">
          <mxGeometry x="30" width="180" height="30" as="geometry">
            <mxRectangle width="180" height="30" as="alternateBounds" />
          </mxGeometry>
        </mxCell>
        <mxCell id="s_6wC5saCBp-LXwiftdf-154" value="" style="shape=tableRow;horizontal=0;startSize=0;swimlaneHead=0;swimlaneBody=0;fillColor=none;collapsible=0;dropTarget=0;points=[[0,0.5],[1,0.5]];portConstraint=eastwest;top=0;left=0;right=0;bottom=0;" vertex="1" parent="s_6wC5saCBp-LXwiftdf-150">
          <mxGeometry y="59" width="210" height="29" as="geometry" />
        </mxCell>
        <mxCell id="s_6wC5saCBp-LXwiftdf-155" value="" style="shape=partialRectangle;connectable=0;fillColor=none;top=0;left=0;bottom=0;right=0;editable=1;overflow=hidden;whiteSpace=wrap;html=1;" vertex="1" parent="s_6wC5saCBp-LXwiftdf-154">
          <mxGeometry width="30" height="29" as="geometry">
            <mxRectangle width="30" height="29" as="alternateBounds" />
          </mxGeometry>
        </mxCell>
        <mxCell id="s_6wC5saCBp-LXwiftdf-156" value="weapon_model_ID" style="shape=partialRectangle;connectable=0;fillColor=none;top=0;left=0;bottom=0;right=0;align=left;spacingLeft=6;overflow=hidden;whiteSpace=wrap;html=1;" vertex="1" parent="s_6wC5saCBp-LXwiftdf-154">
          <mxGeometry x="30" width="180" height="29" as="geometry">
            <mxRectangle width="180" height="29" as="alternateBounds" />
          </mxGeometry>
        </mxCell>
        <mxCell id="s_6wC5saCBp-LXwiftdf-157" value="" style="shape=tableRow;horizontal=0;startSize=0;swimlaneHead=0;swimlaneBody=0;fillColor=none;collapsible=0;dropTarget=0;points=[[0,0.5],[1,0.5]];portConstraint=eastwest;top=0;left=0;right=0;bottom=0;" vertex="1" parent="s_6wC5saCBp-LXwiftdf-150">
          <mxGeometry y="88" width="210" height="30" as="geometry" />
        </mxCell>
        <mxCell id="s_6wC5saCBp-LXwiftdf-158" value="" style="shape=partialRectangle;connectable=0;fillColor=none;top=0;left=0;bottom=0;right=0;editable=1;overflow=hidden;whiteSpace=wrap;html=1;" vertex="1" parent="s_6wC5saCBp-LXwiftdf-157">
          <mxGeometry width="30" height="30" as="geometry">
            <mxRectangle width="30" height="30" as="alternateBounds" />
          </mxGeometry>
        </mxCell>
        <mxCell id="s_6wC5saCBp-LXwiftdf-159" value="component_ID" style="shape=partialRectangle;connectable=0;fillColor=none;top=0;left=0;bottom=0;right=0;align=left;spacingLeft=6;overflow=hidden;whiteSpace=wrap;html=1;" vertex="1" parent="s_6wC5saCBp-LXwiftdf-157">
          <mxGeometry x="30" width="180" height="30" as="geometry">
            <mxRectangle width="180" height="30" as="alternateBounds" />
          </mxGeometry>
        </mxCell>
        <mxCell id="s_6wC5saCBp-LXwiftdf-160" value="" style="shape=tableRow;horizontal=0;startSize=0;swimlaneHead=0;swimlaneBody=0;fillColor=none;collapsible=0;dropTarget=0;points=[[0,0.5],[1,0.5]];portConstraint=eastwest;top=0;left=0;right=0;bottom=0;" vertex="1" parent="s_6wC5saCBp-LXwiftdf-150">
          <mxGeometry y="118" width="210" height="32" as="geometry" />
        </mxCell>
        <mxCell id="s_6wC5saCBp-LXwiftdf-161" value="" style="shape=partialRectangle;connectable=0;fillColor=none;top=0;left=0;bottom=0;right=0;editable=1;overflow=hidden;whiteSpace=wrap;html=1;" vertex="1" parent="s_6wC5saCBp-LXwiftdf-160">
          <mxGeometry width="30" height="32" as="geometry">
            <mxRectangle width="30" height="32" as="alternateBounds" />
          </mxGeometry>
        </mxCell>
        <mxCell id="s_6wC5saCBp-LXwiftdf-162" value="quantity_needed_for_model" style="shape=partialRectangle;connectable=0;fillColor=none;top=0;left=0;bottom=0;right=0;align=left;spacingLeft=6;overflow=hidden;whiteSpace=wrap;html=1;" vertex="1" parent="s_6wC5saCBp-LXwiftdf-160">
          <mxGeometry x="30" width="180" height="32" as="geometry">
            <mxRectangle width="180" height="32" as="alternateBounds" />
          </mxGeometry>
        </mxCell>
        <mxCell id="s_6wC5saCBp-LXwiftdf-171" style="edgeStyle=orthogonalEdgeStyle;rounded=0;orthogonalLoop=1;jettySize=auto;html=1;" edge="1" parent="1" source="s_6wC5saCBp-LXwiftdf-52" target="s_6wC5saCBp-LXwiftdf-154">
          <mxGeometry relative="1" as="geometry" />
        </mxCell>
        <mxCell id="s_6wC5saCBp-LXwiftdf-172" style="edgeStyle=orthogonalEdgeStyle;rounded=0;orthogonalLoop=1;jettySize=auto;html=1;" edge="1" parent="1" source="s_6wC5saCBp-LXwiftdf-72" target="s_6wC5saCBp-LXwiftdf-157">
          <mxGeometry relative="1" as="geometry" />
        </mxCell>
        <mxCell id="s_6wC5saCBp-LXwiftdf-173" style="edgeStyle=orthogonalEdgeStyle;rounded=0;orthogonalLoop=1;jettySize=auto;html=1;" edge="1" parent="1" source="s_6wC5saCBp-LXwiftdf-52" target="s_6wC5saCBp-LXwiftdf-132">
          <mxGeometry relative="1" as="geometry" />
        </mxCell>
        <mxCell id="s_6wC5saCBp-LXwiftdf-174" style="edgeStyle=orthogonalEdgeStyle;rounded=0;orthogonalLoop=1;jettySize=auto;html=1;" edge="1" parent="1" source="s_6wC5saCBp-LXwiftdf-107" target="s_6wC5saCBp-LXwiftdf-144">
          <mxGeometry relative="1" as="geometry" />
        </mxCell>
        <mxCell id="s_6wC5saCBp-LXwiftdf-175" style="edgeStyle=orthogonalEdgeStyle;rounded=0;orthogonalLoop=1;jettySize=auto;html=1;" edge="1" parent="1" source="s_6wC5saCBp-LXwiftdf-52" target="s_6wC5saCBp-LXwiftdf-91">
          <mxGeometry relative="1" as="geometry">
            <Array as="points">
              <mxPoint x="70" y="554" />
              <mxPoint x="70" y="933" />
            </Array>
          </mxGeometry>
        </mxCell>
        <mxCell id="s_6wC5saCBp-LXwiftdf-176" style="edgeStyle=orthogonalEdgeStyle;rounded=0;orthogonalLoop=1;jettySize=auto;html=1;" edge="1" parent="1" source="s_6wC5saCBp-LXwiftdf-88" target="s_6wC5saCBp-LXwiftdf-129">
          <mxGeometry relative="1" as="geometry" />
        </mxCell>
      </root>
    </mxGraphModel>
  </diagram>
</mxfile>
